<mxfile host="app.diagrams.net" modified="2024-04-20T21:50:53.164Z" agent="Mozilla/5.0 (Windows NT 10.0; Win64; x64) AppleWebKit/537.36 (KHTML, like Gecko) Chrome/121.0.0.0 Safari/537.36 OPR/107.0.0.0" version="24.2.7" etag="z3NcY-aCqnSzsQz5ElPH" type="github">
  <diagram name="Page-1" id="-t1ldZqvYngovwxqt92G">
    <mxGraphModel>
      <root>
        <mxCell id="0" />
        <mxCell id="1" parent="0" />
      </root>
    </mxGraphModel>
  </diagram>
</mxfile>
